<svg xmlns="http://www.w3.org/2000/svg" xmlns:xlink="http://www.w3.org/1999/xlink" width="1080" zoomAndPan="magnify" viewBox="0 0 810 1439.999935" height="1920" preserveAspectRatio="xMidYMid meet" version="1.0"><defs><g/></defs><g fill="#c3ffaa" fill-opacity="1"><g transform="translate(160.998763, 178.705394)"><g><path d="M 42.527344 0 L 42.527344 -41.925781 L 32.941406 -41.925781 L 32.941406 -16.171875 L 14.375 -41.925781 L 0.300781 -41.925781 L 0.300781 -32.34375 L 4.792969 -32.34375 L 4.792969 0 L 14.375 0 L 14.375 -25.695312 L 32.941406 0 Z M 42.527344 0 "/></g></g></g><g fill="#c3ffaa" fill-opacity="1"><g transform="translate(212.927317, 178.705394)"><g><path d="M 43.722656 0 L 43.722656 -9.582031 L 12.578125 -9.582031 L 12.578125 -32.34375 L 35.636719 -32.34375 L 35.636719 -25.15625 L 15.574219 -25.15625 L 15.574219 -15.574219 L 39.230469 -15.574219 L 45.222656 -21.5625 L 45.222656 -35.9375 L 39.230469 -41.925781 L 8.984375 -41.925781 L 2.996094 -35.9375 L 2.996094 -5.988281 L 8.984375 0 Z M 43.722656 0 "/></g></g></g><g fill="#c3ffaa" fill-opacity="1"><g transform="translate(267.551103, 178.705394)"><g><path d="M 40.730469 0 L 46.71875 -5.988281 L 46.71875 -35.9375 L 40.730469 -41.925781 L 8.984375 -41.925781 L 2.996094 -35.9375 L 2.996094 -5.988281 L 8.984375 0 Z M 37.136719 -9.582031 L 12.578125 -9.582031 L 12.578125 -32.34375 L 37.136719 -32.34375 Z M 37.136719 -9.582031 "/></g></g></g><g fill="#c3ffaa" fill-opacity="1"><g transform="translate(323.672234, 178.705394)"><g/></g></g><path stroke-linecap="butt" transform="matrix(0.436238, 0, 0, 0.436238, 145.141822, 128.508367)" fill="none" stroke-linejoin="miter" d="M 127.75874 109.00073 L 127.75874 12.893075 L 105.802533 12.893075 L 105.802533 71.929483 L 63.23328 12.893075 L 30.952641 12.893075 L 30.952641 34.849282 L 41.277073 34.849282 L 41.277073 109.00073 L 63.23328 109.00073 L 63.23328 50.107592 L 105.802533 109.00073 Z M 249.547635 109.00073 L 249.547635 87.044523 L 178.14519 87.044523 L 178.14519 34.849282 L 231.012011 34.849282 L 231.012011 51.3433 L 185.022175 51.3433 L 185.022175 73.299507 L 239.250066 73.299507 L 252.968218 59.554492 L 252.968218 26.602273 L 239.250066 12.893075 L 169.898181 12.893075 L 156.188983 26.602273 L 156.188983 95.255714 L 169.898181 109.00073 Z M 367.889083 109.00073 L 381.634098 95.255714 L 381.634098 26.602273 L 367.889083 12.893075 L 295.116614 12.893075 L 281.407416 26.602273 L 281.407416 95.255714 L 295.116614 109.00073 Z M 359.677891 87.044523 L 303.363623 87.044523 L 303.363623 34.849282 L 359.677891 34.849282 Z M 359.677891 87.044523 " stroke="#0d2917" stroke-width="5.148938" stroke-opacity="1" stroke-miterlimit="4"/><g fill="#c3ffaa" fill-opacity="1"><g transform="translate(354.033941, 178.705394)"><g><path d="M 36.535156 -10.183594 L 42.527344 -16.171875 L 42.527344 -35.9375 L 36.535156 -41.925781 L 0.300781 -41.925781 L 0.300781 -32.34375 L 32.941406 -32.34375 L 32.941406 -19.765625 L 14.375 -19.765625 L 14.375 -29.347656 L 4.792969 -29.347656 L 4.792969 0 L 14.375 0 L 14.375 -10.183594 Z M 36.535156 -10.183594 "/></g></g></g><g fill="#c3ffaa" fill-opacity="1"><g transform="translate(404.764611, 178.705394)"><g><path d="M 45.222656 0 L 45.222656 -9.582031 L 20.425781 -9.582031 L 45.222656 -29.347656 L 45.222656 -35.9375 L 39.230469 -41.925781 L 8.984375 -41.925781 L 2.996094 -35.9375 L 2.996094 -26.355469 L 12.578125 -26.355469 L 12.578125 -32.34375 L 33.542969 -32.34375 L 4.492188 -9.582031 L 4.492188 0 Z M 45.222656 0 "/></g></g></g><g fill="#c3ffaa" fill-opacity="1"><g transform="translate(459.388398, 178.705394)"><g><path d="M 36.535156 -10.183594 L 42.527344 -16.171875 L 42.527344 -35.9375 L 36.535156 -41.925781 L 0.300781 -41.925781 L 0.300781 -32.34375 L 32.941406 -32.34375 L 32.941406 -19.765625 L 14.375 -19.765625 L 14.375 -29.347656 L 4.792969 -29.347656 L 4.792969 0 L 14.375 0 L 14.375 -10.183594 Z M 36.535156 -10.183594 "/></g></g></g><path stroke-linecap="butt" transform="matrix(0.436238, 0, 0, 0.436238, 145.141822, 128.508367)" fill="none" stroke-linejoin="miter" d="M 556.549492 85.665544 L 570.25869 71.929483 L 570.25869 26.602273 L 556.549492 12.893075 L 473.452592 12.893075 L 473.452592 34.849282 L 548.302483 34.849282 L 548.302483 63.682474 L 505.73323 63.682474 L 505.73323 41.726267 L 483.777023 41.726267 L 483.777023 109.00073 L 505.73323 109.00073 L 505.73323 85.665544 Z M 692.719166 109.00073 L 692.719166 87.044523 L 635.903451 87.044523 L 692.719166 41.726267 L 692.719166 26.602273 L 679.009968 12.893075 L 609.658083 12.893075 L 595.939931 26.602273 L 595.939931 48.594297 L 617.896138 48.594297 L 617.896138 34.849282 L 665.972351 34.849282 L 599.360514 87.044523 L 599.360514 109.00073 Z M 798.058814 85.665544 L 811.768012 71.929483 L 811.768012 26.602273 L 798.058814 12.893075 L 714.961914 12.893075 L 714.961914 34.849282 L 789.811805 34.849282 L 789.811805 63.682474 L 747.242552 63.682474 L 747.242552 41.726267 L 725.286345 41.726267 L 725.286345 109.00073 L 747.242552 109.00073 L 747.242552 85.665544 Z M 798.058814 85.665544 " stroke="#0d2917" stroke-width="5.148938" stroke-opacity="1" stroke-miterlimit="4"/></svg>